<svg width="512" height="512" viewBox="0 0 512 512" fill="none" xmlns="http://www.w3.org/2000/svg">
<path d="M0 256C0 158.687 20.4522 87.04 53.76 53.76C87.0678 20.48 158.753 0 256 0C353.355 0 424.96 20.4172 458.24 53.76C491.52 87.1028 512 158.795 512 256C512 353.323 491.556 424.96 458.24 458.24C424.924 491.52 353.237 512 256 512C158.796 512 87.1038 491.52 53.76 458.24C20.4162 424.96 0 353.356 0 256Z" fill="#F26302"/>
<path d="M384.493 363.859C389.215 363.859 392 360.952 392 356.591V188.318C392 184.563 391.879 183.109 390.547 180.928C378.075 160.333 350.346 148.703 324.07 148.703C300.216 148.703 277.936 157.91 265.101 174.628C263.042 177.415 262.8 178.263 262.8 181.17V356.227C262.8 359.014 264.737 360.831 267.159 360.831C268.491 360.831 269.944 360.346 271.155 359.256C282.779 349.201 300.216 341.084 320.801 341.084C341.991 341.084 363.06 347.747 377.833 361.194C379.77 362.89 381.829 363.859 384.493 363.859ZM127.507 363.859C122.785 363.859 120 360.952 120 356.591V188.318C120 184.563 120.121 183.109 121.453 180.928C133.925 160.333 161.654 148.703 187.93 148.703C211.784 148.703 234.064 157.91 246.899 174.628C248.958 177.415 249.2 178.263 249.2 181.17V356.227C249.2 359.014 247.263 360.831 244.841 360.831C243.509 360.831 242.056 360.346 240.845 359.256C229.221 349.201 211.784 341.084 191.199 341.084C170.009 341.084 148.94 347.747 134.167 361.194C132.23 362.89 130.171 363.859 127.507 363.859Z" fill="white"/>
</svg>
