<svg width="512" height="512" viewBox="0 0 512 512" fill="none" xmlns="http://www.w3.org/2000/svg">
<path d="M0 256C0 158.687 20.4522 87.04 53.76 53.76C87.0678 20.48 158.753 0 256 0C353.355 0 424.96 20.4172 458.24 53.76C491.52 87.1028 512 158.795 512 256C512 353.323 491.556 424.96 458.24 458.24C424.924 491.52 353.237 512 256 512C158.796 512 87.1038 491.52 53.76 458.24C20.4162 424.96 0 353.356 0 256Z" fill="black"/>
<path fill-rule="evenodd" clip-rule="evenodd" d="M247 109C264.121 109 278 122.879 278 140V251.16L330.92 304.081C343.026 316.186 343.026 335.815 330.92 347.921C318.815 360.026 299.186 360.026 287.08 347.921L225.08 285.921C219.267 280.108 216 272.222 216 264.001V140C216 122.879 229.879 109 247 109Z" fill="white"/>
</svg>
