<svg width="512" height="512" viewBox="0 0 512 512" fill="none" xmlns="http://www.w3.org/2000/svg">
<path d="M0 256C0 158.687 20.4522 87.04 53.76 53.76C87.0678 20.48 158.753 0 256 0C353.355 0 424.96 20.4172 458.24 53.76C491.52 87.1028 512 158.795 512 256C512 353.323 491.556 424.96 458.24 458.24C424.924 491.52 353.237 512 256 512C158.796 512 87.1038 491.52 53.76 458.24C20.4162 424.96 0 353.356 0 256Z" fill="#7224D8"/>
<path d="M304.932 394.355C360.253 374.377 399.649 321.297 399.649 259.134C399.649 179.521 335.251 114.98 255.631 114.98C176.012 114.98 111.471 179.235 111.471 258.854C111.471 321.166 150.866 374.24 206.175 394.361L203.386 371.874C160.641 352.45 131.169 309.425 131.169 259.14C131.1 242.777 134.272 226.561 140.503 211.43C146.733 196.298 155.899 182.55 167.47 170.979C179.041 159.408 192.789 150.243 207.92 144.012C223.052 137.782 239.267 134.609 255.631 134.678C324.636 134.678 379.951 189.855 379.951 258.86C379.951 309.282 350.479 352.313 307.871 371.725L304.932 394.355ZM312.06 336.942C336.091 319.479 352.01 291.128 352.01 259.14C352.01 205.918 308.568 162.612 255.625 162.612C202.683 162.612 159.103 205.637 159.103 258.86C159.103 290.985 174.891 319.485 199.196 336.805L198.636 333.313C197.658 325.91 198.636 318.782 201.008 312.774C187.324 299.227 178.938 280.233 178.938 259.134C178.938 216.532 212.326 182.447 255.625 182.447C298.794 182.447 332.319 216.538 332.319 259.134C332.319 280.37 323.796 299.364 309.969 312.774C312.484 318.925 313.461 325.91 312.484 333.456L312.06 336.942ZM255.631 280.93C273.928 280.93 289.013 266.12 289.013 247.542C289.013 228.965 274.209 214.017 255.625 214.017C237.042 214.017 222.1 228.965 222.1 247.542C222.1 266.12 237.054 280.93 255.631 280.93ZM255.631 426.205C271.55 426.205 283.005 416.985 285.103 399.802L293.483 331.501C296.135 310.122 278.822 296.575 255.625 296.575C232.298 296.575 214.841 309.985 217.63 331.501L226.016 399.802C228.108 416.985 239.569 426.205 255.631 426.205Z" fill="white"/>
</svg>
