<svg xmlns="http://www.w3.org/2000/svg" version="1.1" xmlns:xlink="http://www.w3.org/1999/xlink" width="512" height="512"><svg width="512" height="512" viewBox="0 0 512 512" fill="none" xmlns="http://www.w3.org/2000/svg">
<path d="M0 256C0 158.687 20.4522 87.04 53.76 53.76C87.0678 20.48 158.753 0 256 0C353.355 0 424.96 20.4172 458.24 53.76C491.52 87.1028 512 158.795 512 256C512 353.323 491.556 424.96 458.24 458.24C424.924 491.52 353.237 512 256 512C158.796 512 87.1038 491.52 53.76 458.24C20.4162 424.96 0 353.356 0 256Z" fill="#4285F4"></path>
<path fill-rule="evenodd" clip-rule="evenodd" d="M164.46 115.167C172.238 115.167 178.543 121.472 178.543 129.25V150.375H199.668C207.446 150.375 213.751 156.68 213.751 164.458C213.751 172.236 207.446 178.542 199.668 178.542H178.543V199.667C178.543 207.445 172.238 213.75 164.46 213.75C156.682 213.75 150.376 207.445 150.376 199.667V178.542H129.251C121.473 178.542 115.168 172.236 115.168 164.458C115.168 156.68 121.473 150.375 129.251 150.375H150.376V129.25C150.376 121.472 156.682 115.167 164.46 115.167Z" fill="white"></path>
<path fill-rule="evenodd" clip-rule="evenodd" d="M133.375 302.375C138.875 296.875 147.792 296.875 153.292 302.375L171.5 320.583L189.708 302.375C195.208 296.875 204.125 296.875 209.625 302.375C215.125 307.874 215.125 316.792 209.625 322.291L191.417 340.5L209.625 358.708C215.125 364.208 215.125 373.125 209.625 378.625C204.125 384.124 195.208 384.124 189.708 378.625L171.5 360.416L153.292 378.625C147.792 384.124 138.875 384.124 133.375 378.625C127.875 373.125 127.875 364.208 133.375 358.708L151.583 340.5L133.375 322.291C127.875 316.792 127.875 307.874 133.375 302.375Z" fill="white"></path>
<path fill-rule="evenodd" clip-rule="evenodd" d="M382.75 171.5C382.75 179.278 376.445 185.583 368.667 185.583H312.333C304.555 185.583 298.25 179.278 298.25 171.5C298.25 163.722 304.555 157.417 312.333 157.417H368.667C376.445 157.417 382.75 163.722 382.75 171.5Z" fill="white"></path>
<path fill-rule="evenodd" clip-rule="evenodd" d="M298.25 305.292C298.25 297.513 304.555 291.208 312.333 291.208H368.667C376.445 291.208 382.75 297.513 382.75 305.292C382.75 313.07 376.445 319.375 368.667 319.375H312.333C304.555 319.375 298.25 313.07 298.25 305.292ZM298.25 347.542C298.25 339.763 304.555 333.458 312.333 333.458H368.667C376.445 333.458 382.75 339.763 382.75 347.542C382.75 355.32 376.445 361.625 368.667 361.625H312.333C304.555 361.625 298.25 355.32 298.25 347.542Z" fill="white"></path>
</svg><style>@media (prefers-color-scheme: light) { :root { filter: none; } }
@media (prefers-color-scheme: dark) { :root { filter: none; } }
</style></svg>