<svg width="512" height="512" viewBox="0 0 512 512" fill="none" xmlns="http://www.w3.org/2000/svg">
<path d="M0 256C0 158.687 20.4522 87.04 53.76 53.76C87.0678 20.48 158.753 0 256 0C353.355 0 424.96 20.4172 458.24 53.76C491.52 87.1028 512 158.795 512 256C512 353.323 491.556 424.96 458.24 458.24C424.924 491.52 353.237 512 256 512C158.796 512 87.1038 491.52 53.76 458.24C20.4162 424.96 0 353.356 0 256Z" fill="black"/>
<path d="M206.465 286.393H259.436ZM206.465 220.179H312.408Z" fill="#D9D9D9"/>
<path d="M206.465 286.393H259.436M206.465 220.179H312.408" stroke="black" stroke-width="19.8643" stroke-linecap="round"/>
<path d="M101 333.5C101 306.321 106.712 286.31 116.015 277.015C125.318 267.72 145.339 262 172.5 262C199.691 262 219.69 267.702 228.985 277.015C238.28 286.328 244 306.351 244 333.5C244 360.682 238.29 380.69 228.985 389.985C219.68 399.28 199.658 405 172.5 405C145.351 405 125.328 399.28 116.015 389.985C106.702 380.69 101 360.691 101 333.5Z" fill="white"/>
<path d="M101 166.5C101 139.321 106.712 119.31 116.015 110.015C125.318 100.72 145.339 95 172.5 95C199.691 95 219.69 100.702 228.985 110.015C238.28 119.328 244 139.351 244 166.5C244 193.682 238.29 213.69 228.985 222.985C219.68 232.28 199.658 238 172.5 238C145.351 238 125.328 232.28 116.015 222.985C106.702 213.69 101 193.691 101 166.5Z" fill="white"/>
<path d="M268 333.5C268 306.321 273.712 286.31 283.015 277.015C292.318 267.72 312.339 262 339.5 262C366.691 262 386.69 267.702 395.985 277.015C405.28 286.328 411 306.351 411 333.5C411 360.682 405.29 380.69 395.985 389.985C386.68 399.28 366.658 405 339.5 405C312.351 405 292.328 399.28 283.015 389.985C273.702 380.69 268 360.691 268 333.5Z" fill="white"/>
<path d="M268 166.5C268 139.321 273.712 119.31 283.015 110.015C292.318 100.72 312.339 95 339.5 95C366.691 95 386.69 100.702 395.985 110.015C405.28 119.328 411 139.351 411 166.5C411 193.682 405.29 213.69 395.985 222.985C386.68 232.28 366.658 238 339.5 238C312.351 238 292.328 232.28 283.015 222.985C273.702 213.69 268 193.691 268 166.5Z" fill="white"/>
</svg>
